# Blender v2.78 (sub 0) OBJ File: 'brama_01.blend'
# www.blender.org
mtllib brama_01.mtl
o arch01_Plane.004
v -2.546030 -0.000002 -0.420933
v -1.771099 -0.000002 -0.420933
v -2.546030 -0.000002 0.420933
v -1.771099 -0.000002 0.420933
v -2.447310 2.880358 0.420934
v -2.447310 2.880358 -0.420932
v -1.760386 2.574899 -0.420932
v -1.760386 2.574899 0.420934
v -1.771099 0.514978 0.420933
v -1.771099 1.029958 0.420934
v -1.765034 1.544939 0.420934
v -1.798236 2.059919 0.420934
v -1.798236 2.059919 -0.420933
v -1.765034 1.544939 -0.420933
v -1.771099 1.029958 -0.420933
v -1.771099 0.514978 -0.420933
v -2.546030 0.514978 -0.420933
v -2.546030 1.029958 -0.420933
v -2.546030 1.544939 -0.420933
v -2.546030 2.059919 -0.420933
v -2.546030 2.059919 0.420934
v -2.546030 1.544939 0.420934
v -2.546030 1.029958 0.420934
v -2.546030 0.514978 0.420933
v -2.208251 3.470809 0.420934
v -2.208251 3.470810 -0.420932
v -1.559252 2.980391 -0.420932
v -1.559252 2.980390 0.420934
v -1.633090 4.037977 0.420934
v -1.633090 4.037977 -0.420932
v -1.139481 3.393177 -0.420932
v -1.139481 3.393176 0.420934
v -1.035579 4.315392 0.420934
v -1.035579 4.315392 -0.420932
v -0.770215 3.539211 -0.420932
v -0.770215 3.539210 0.420934
v -0.469919 4.451394 0.420934
v -0.469919 4.451394 -0.420932
v -0.312000 3.691368 -0.420932
v -0.312000 3.691367 0.420934
v 2.546030 -0.000002 -0.420933
v 1.771099 -0.000002 -0.420933
v 2.546030 -0.000002 0.420933
v 1.771099 -0.000002 0.420933
v 2.447310 2.880358 0.420934
v 2.447310 2.880358 -0.420932
v 1.760386 2.574899 -0.420932
v 1.760386 2.574899 0.420934
v 1.771099 0.514978 0.420933
v 1.771099 1.029958 0.420934
v 1.765034 1.544939 0.420934
v 1.798236 2.059919 0.420934
v 1.798236 2.059919 -0.420933
v 1.765034 1.544939 -0.420933
v 1.771099 1.029958 -0.420933
v 1.771099 0.514978 -0.420933
v 2.546030 0.514978 -0.420933
v 2.546030 1.029958 -0.420933
v 2.546030 1.544939 -0.420933
v 2.546030 2.059919 -0.420933
v 2.546030 2.059919 0.420934
v 2.546030 1.544939 0.420934
v 2.546030 1.029958 0.420934
v 2.546030 0.514978 0.420933
v 2.208251 3.470809 0.420934
v 2.208251 3.470810 -0.420932
v 1.559252 2.980391 -0.420932
v 1.559252 2.980390 0.420934
v 1.633090 4.037977 0.420934
v 1.633090 4.037977 -0.420932
v 1.139481 3.393177 -0.420932
v 1.139481 3.393176 0.420934
v 1.035579 4.315392 0.420934
v 1.035579 4.315392 -0.420932
v 0.770215 3.539211 -0.420932
v 0.770215 3.539210 0.420934
v 0.469919 4.451394 0.420934
v 0.469919 4.451394 -0.420932
v 0.312000 3.691368 -0.420932
v 0.312000 3.691367 0.420934
v 0.000000 4.505746 0.420934
v 0.000000 4.505746 -0.420932
v 0.000000 3.710238 -0.420932
v 0.000000 3.710237 0.420934
vt 0.1419 0.0010
vt 0.0010 0.0010
vt 0.0010 0.1419
vt 0.1419 0.1419
vt 0.1419 0.1439
vt 0.0010 0.1439
vt 0.0010 0.2847
vt 0.1419 0.2847
vt 0.2847 0.0010
vt 0.1439 0.0010
vt 0.1439 0.1419
vt 0.2847 0.1419
vt 0.2847 0.1439
vt 0.1439 0.1439
vt 0.1439 0.2847
vt 0.2847 0.2847
vt 0.1419 0.2867
vt 0.0010 0.2867
vt 0.0010 0.4276
vt 0.1419 0.4276
vt 0.4276 0.0010
vt 0.2867 0.0010
vt 0.2867 0.1419
vt 0.4276 0.1419
vt 0.4276 0.1439
vt 0.2867 0.1439
vt 0.2867 0.2847
vt 0.4276 0.2847
vt 0.2847 0.2867
vt 0.1439 0.2867
vt 0.1439 0.4276
vt 0.2847 0.4276
vt 0.4276 0.2867
vt 0.2867 0.2867
vt 0.2867 0.4276
vt 0.4276 0.4276
vt 0.1419 0.4296
vt 0.0010 0.4296
vt 0.0010 0.5704
vt 0.1419 0.5704
vt 0.5704 0.0010
vt 0.4296 0.0010
vt 0.4296 0.1419
vt 0.5704 0.1419
vt 0.2847 0.4296
vt 0.1439 0.4296
vt 0.1439 0.5704
vt 0.2847 0.5704
vt 0.5704 0.1439
vt 0.4296 0.1439
vt 0.4296 0.2847
vt 0.5704 0.2847
vt 0.4276 0.4296
vt 0.2867 0.4296
vt 0.2867 0.5704
vt 0.4276 0.5704
vt 0.5704 0.2867
vt 0.4296 0.2867
vt 0.4296 0.4276
vt 0.5704 0.4276
vt 0.5704 0.4296
vt 0.4296 0.4296
vt 0.4296 0.5704
vt 0.5704 0.5704
vt 0.1419 0.5724
vt 0.0010 0.5724
vt 0.0010 0.7133
vt 0.1419 0.7133
vt 0.7133 0.0010
vt 0.5724 0.0010
vt 0.5724 0.1419
vt 0.7133 0.1419
vt 0.7133 0.1439
vt 0.5724 0.1439
vt 0.5724 0.2847
vt 0.7133 0.2847
vt 0.2847 0.5724
vt 0.1439 0.5724
vt 0.1439 0.7133
vt 0.2847 0.7133
vt 0.4276 0.5724
vt 0.2867 0.5724
vt 0.2867 0.7133
vt 0.4276 0.7133
vt 0.7133 0.2867
vt 0.5724 0.2867
vt 0.5724 0.4276
vt 0.7133 0.4276
vt 0.7133 0.4296
vt 0.5724 0.4296
vt 0.5724 0.5704
vt 0.7133 0.5704
vt 0.5704 0.5724
vt 0.4296 0.5724
vt 0.4296 0.7133
vt 0.5704 0.7133
vt 0.7133 0.5724
vt 0.5724 0.5724
vt 0.5724 0.7133
vt 0.7133 0.7133
vt 0.8561 0.0010
vt 0.7153 0.0010
vt 0.7153 0.1419
vt 0.8561 0.1419
vt 0.1419 0.7153
vt 0.0010 0.7153
vt 0.0010 0.8561
vt 0.1419 0.8561
vt 0.8561 0.1439
vt 0.7153 0.1439
vt 0.7153 0.2847
vt 0.8561 0.2847
vt 0.2847 0.7153
vt 0.1439 0.7153
vt 0.1439 0.8561
vt 0.2847 0.8561
vt 0.4276 0.7153
vt 0.2867 0.7153
vt 0.2867 0.8561
vt 0.4276 0.8561
vt 0.8561 0.2867
vt 0.7153 0.2867
vt 0.7153 0.4276
vt 0.8561 0.4276
vt 0.5704 0.7153
vt 0.4296 0.7153
vt 0.4296 0.8561
vt 0.5704 0.8561
vt 0.8561 0.4296
vt 0.7153 0.4296
vt 0.7153 0.5704
vt 0.8561 0.5704
vt 0.7133 0.7153
vt 0.5724 0.7153
vt 0.5724 0.8561
vt 0.7133 0.8561
vt 0.8561 0.5724
vt 0.7153 0.5724
vt 0.7153 0.7133
vt 0.8561 0.7133
vt 0.8561 0.7153
vt 0.7153 0.7153
vt 0.7153 0.8561
vt 0.8561 0.8561
vt 0.9990 0.0010
vt 0.8581 0.0010
vt 0.8581 0.1419
vt 0.9990 0.1419
vt 0.1419 0.8581
vt 0.0010 0.8581
vt 0.0010 0.9990
vt 0.1419 0.9990
vt 0.9990 0.1439
vt 0.8581 0.1439
vt 0.8581 0.2847
vt 0.9990 0.2847
vt 0.2847 0.8581
vt 0.1439 0.8581
vt 0.1439 0.9990
vt 0.2847 0.9990
vt 0.4276 0.8581
vt 0.2867 0.8581
vt 0.2867 0.9990
vt 0.4276 0.9990
vt 0.1419 0.0010
vt 0.1419 0.1419
vt 0.0010 0.1419
vt 0.0010 0.0010
vt 0.1419 0.1439
vt 0.1419 0.2847
vt 0.0010 0.2847
vt 0.0010 0.1439
vt 0.2847 0.0010
vt 0.2847 0.1419
vt 0.1439 0.1419
vt 0.1439 0.0010
vt 0.2847 0.1439
vt 0.2847 0.2847
vt 0.1439 0.2847
vt 0.1439 0.1439
vt 0.1419 0.2867
vt 0.1419 0.4276
vt 0.0010 0.4276
vt 0.0010 0.2867
vt 0.4276 0.0010
vt 0.4276 0.1419
vt 0.2867 0.1419
vt 0.2867 0.0010
vt 0.4276 0.1439
vt 0.4276 0.2847
vt 0.2867 0.2847
vt 0.2867 0.1439
vt 0.2847 0.2867
vt 0.2847 0.4276
vt 0.1439 0.4276
vt 0.1439 0.2867
vt 0.4276 0.2867
vt 0.4276 0.4276
vt 0.2867 0.4276
vt 0.2867 0.2867
vt 0.1419 0.4296
vt 0.1419 0.5704
vt 0.0010 0.5704
vt 0.0010 0.4296
vt 0.5704 0.0010
vt 0.5704 0.1419
vt 0.4296 0.1419
vt 0.4296 0.0010
vt 0.2847 0.4296
vt 0.2847 0.5704
vt 0.1439 0.5704
vt 0.1439 0.4296
vt 0.5704 0.1439
vt 0.5704 0.2847
vt 0.4296 0.2847
vt 0.4296 0.1439
vt 0.4276 0.4296
vt 0.4276 0.5704
vt 0.2867 0.5704
vt 0.2867 0.4296
vt 0.5704 0.2867
vt 0.5704 0.4276
vt 0.4296 0.4276
vt 0.4296 0.2867
vt 0.5704 0.4296
vt 0.5704 0.5704
vt 0.4296 0.5704
vt 0.4296 0.4296
vt 0.1419 0.5724
vt 0.1419 0.7133
vt 0.0010 0.7133
vt 0.0010 0.5724
vt 0.7133 0.0010
vt 0.7133 0.1419
vt 0.5724 0.1419
vt 0.5724 0.0010
vt 0.7133 0.1439
vt 0.7133 0.2847
vt 0.5724 0.2847
vt 0.5724 0.1439
vt 0.2847 0.5724
vt 0.2847 0.7133
vt 0.1439 0.7133
vt 0.1439 0.5724
vt 0.4276 0.5724
vt 0.4276 0.7133
vt 0.2867 0.7133
vt 0.2867 0.5724
vt 0.7133 0.2867
vt 0.7133 0.4276
vt 0.5724 0.4276
vt 0.5724 0.2867
vt 0.7133 0.4296
vt 0.7133 0.5704
vt 0.5724 0.5704
vt 0.5724 0.4296
vt 0.5704 0.5724
vt 0.5704 0.7133
vt 0.4296 0.7133
vt 0.4296 0.5724
vt 0.7133 0.5724
vt 0.7133 0.7133
vt 0.5724 0.7133
vt 0.5724 0.5724
vt 0.8561 0.0010
vt 0.8561 0.1419
vt 0.7153 0.1419
vt 0.7153 0.0010
vt 0.1419 0.7153
vt 0.1419 0.8561
vt 0.0010 0.8561
vt 0.0010 0.7153
vt 0.8561 0.1439
vt 0.8561 0.2847
vt 0.7153 0.2847
vt 0.7153 0.1439
vt 0.2847 0.7153
vt 0.2847 0.8561
vt 0.1439 0.8561
vt 0.1439 0.7153
vt 0.4276 0.7153
vt 0.4276 0.8561
vt 0.2867 0.8561
vt 0.2867 0.7153
vt 0.8561 0.2867
vt 0.8561 0.4276
vt 0.7153 0.4276
vt 0.7153 0.2867
vt 0.5704 0.7153
vt 0.5704 0.8561
vt 0.4296 0.8561
vt 0.4296 0.7153
vt 0.8561 0.4296
vt 0.8561 0.5704
vt 0.7153 0.5704
vt 0.7153 0.4296
vt 0.7133 0.7153
vt 0.7133 0.8561
vt 0.5724 0.8561
vt 0.5724 0.7153
vt 0.8561 0.5724
vt 0.8561 0.7133
vt 0.8561 0.7153
vt 0.8561 0.8561
vt 0.7153 0.8561
vt 0.7153 0.7153
vt 0.9990 0.0010
vt 0.9990 0.1419
vt 0.8581 0.1419
vt 0.8581 0.0010
vt 0.1419 0.8581
vt 0.1419 0.9990
vt 0.0010 0.9990
vt 0.0010 0.8581
vt 0.9990 0.1439
vt 0.9990 0.2847
vt 0.2847 0.8581
vt 0.2847 0.9990
vt 0.4276 0.8581
vt 0.4276 0.9990
vn 0.0000 -1.0000 -0.0000
vn -0.9269 0.3753 0.0000
vn 0.9973 -0.0733 -0.0000
vn -0.9928 0.1195 0.0000
vn 0.0000 -0.0000 1.0000
vn 0.0000 0.0000 -1.0000
vn -1.0000 0.0000 0.0000
vn 1.0000 0.0000 0.0000
vn 0.9999 -0.0118 -0.0000
vn 0.9979 0.0643 0.0000
vn 0.7011 -0.7130 -0.0000
vn 0.8958 -0.4444 -0.0000
vn -0.7021 0.7120 0.0000
vn 0.3151 -0.9490 -0.0000
vn 0.3678 -0.9299 -0.0000
vn -0.4211 0.9070 0.0000
vn 0.0604 -0.9982 -0.0000
vn -0.2338 0.9723 0.0000
vn -0.1149 0.9934 0.0000
vn 0.9269 0.3753 0.0000
vn -0.9973 -0.0733 -0.0000
vn 0.9928 0.1195 0.0000
vn -0.9999 -0.0118 -0.0000
vn -0.9979 0.0643 0.0000
vn -0.7011 -0.7130 -0.0000
vn -0.8958 -0.4444 -0.0000
vn 0.7021 0.7120 0.0000
vn -0.3151 -0.9490 -0.0000
vn -0.3678 -0.9299 -0.0000
vn 0.4211 0.9070 0.0000
vn -0.0604 -0.9982 -0.0000
vn 0.2338 0.9723 0.0000
vn 0.1149 0.9934 0.0000
usemtl cegla01
s off
f 1/1/1 2/2/1 4/3/1 3/4/1
f 5/5/2 25/6/2 26/7/2 6/8/2
f 13/9/3 7/10/3 8/11/3 12/12/3
f 21/13/4 5/14/4 6/15/4 20/16/4
f 12/17/5 8/18/5 5/19/5 21/20/5
f 20/21/6 6/22/6 7/23/6 13/24/6
f 1/25/6 17/26/6 16/27/6 2/28/6
f 17/29/6 18/30/6 15/31/6 16/32/6
f 18/33/6 19/34/6 14/35/6 15/36/6
f 19/37/6 20/38/6 13/39/6 14/40/6
f 4/41/5 9/42/5 24/43/5 3/44/5
f 9/45/5 10/46/5 23/47/5 24/48/5
f 10/49/5 11/50/5 22/51/5 23/52/5
f 11/53/5 12/54/5 21/55/5 22/56/5
f 3/57/7 24/58/7 17/59/7 1/60/7
f 24/61/7 23/62/7 18/63/7 17/64/7
f 23/65/7 22/66/7 19/67/7 18/68/7
f 22/69/7 21/70/7 20/71/7 19/72/7
f 2/73/8 16/74/8 9/75/8 4/76/8
f 16/77/8 15/78/8 10/79/8 9/80/8
f 15/81/9 14/82/9 11/83/9 10/84/9
f 14/85/10 13/86/10 12/87/10 11/88/10
f 27/89/11 31/90/11 32/91/11 28/92/11
f 8/93/5 28/94/5 25/95/5 5/96/5
f 6/97/6 26/98/6 27/99/6 7/100/6
f 7/101/12 27/102/12 28/103/12 8/104/12
f 32/105/5 36/106/5 33/107/5 29/108/5
f 25/109/13 29/110/13 30/111/13 26/112/13
f 28/113/5 32/114/5 29/115/5 25/116/5
f 26/117/6 30/118/6 31/119/6 27/120/6
f 35/121/14 39/122/14 40/123/14 36/124/14
f 30/125/6 34/126/6 35/127/6 31/128/6
f 31/129/15 35/130/15 36/131/15 32/132/15
f 29/133/16 33/134/16 34/135/16 30/136/16
f 39/137/17 83/138/17 84/139/17 40/140/17
f 33/141/18 37/142/18 38/143/18 34/144/18
f 36/145/5 40/146/5 37/147/5 33/148/5
f 34/149/6 38/150/6 39/151/6 35/152/6
f 37/153/19 81/154/19 82/155/19 38/156/19
f 40/157/5 84/158/5 81/159/5 37/160/5
f 38/161/6 82/162/6 83/163/6 39/164/6
f 41/165/1 43/166/1 44/167/1 42/168/1
f 45/169/20 46/170/20 66/171/20 65/172/20
f 53/173/21 52/174/21 48/175/21 47/176/21
f 61/177/22 60/178/22 46/179/22 45/180/22
f 52/181/5 61/182/5 45/183/5 48/184/5
f 60/185/6 53/186/6 47/187/6 46/188/6
f 41/189/6 42/190/6 56/191/6 57/192/6
f 57/193/6 56/194/6 55/195/6 58/196/6
f 58/197/6 55/198/6 54/199/6 59/200/6
f 59/201/6 54/202/6 53/203/6 60/204/6
f 44/205/5 43/206/5 64/207/5 49/208/5
f 49/209/5 64/210/5 63/211/5 50/212/5
f 50/213/5 63/214/5 62/215/5 51/216/5
f 51/217/5 62/218/5 61/219/5 52/220/5
f 43/221/8 41/222/8 57/223/8 64/224/8
f 64/225/8 57/226/8 58/227/8 63/228/8
f 63/229/8 58/230/8 59/231/8 62/232/8
f 62/233/8 59/234/8 60/235/8 61/236/8
f 42/237/7 44/238/7 49/239/7 56/240/7
f 56/241/7 49/242/7 50/243/7 55/244/7
f 55/245/23 50/246/23 51/247/23 54/248/23
f 54/249/24 51/250/24 52/251/24 53/252/24
f 67/253/25 68/254/25 72/255/25 71/256/25
f 48/257/5 45/258/5 65/259/5 68/260/5
f 46/261/6 47/262/6 67/263/6 66/264/6
f 47/265/26 48/266/26 68/267/26 67/268/26
f 72/269/5 69/270/5 73/271/5 76/272/5
f 65/273/27 66/274/27 70/275/27 69/276/27
f 68/277/5 65/278/5 69/279/5 72/280/5
f 66/281/6 67/282/6 71/283/6 70/284/6
f 75/285/28 76/286/28 80/287/28 79/288/28
f 70/289/6 71/290/6 75/291/6 74/292/6
f 71/293/29 72/294/29 76/295/29 75/296/29
f 69/297/30 70/298/30 74/299/30 73/300/30
f 79/301/31 80/302/31 84/139/31 83/138/31
f 73/303/32 74/304/32 78/305/32 77/306/32
f 76/307/5 73/308/5 77/309/5 80/310/5
f 74/311/6 75/312/6 79/313/6 78/314/6
f 77/315/33 78/316/33 82/155/33 81/154/33
f 80/317/5 77/318/5 81/159/5 84/158/5
f 78/319/6 79/320/6 83/163/6 82/162/6
